<svg xmlns="http://www.w3.org/2000/svg" width="682.667" height="682.667" version="1.0" viewBox="0 0 512 512"><path d="M33.8 70C10.9 73.9-4.6 98.1 1.5 120.5c3.3 12.5 11.1 21.6 23.2 27.3l5.8 2.7h451l6.5-3.1c11.9-5.7 19.3-14.6 22.5-26.9 6-23.4-9.2-46.6-33.2-50.5-7.1-1.2-436.6-1.1-443.5 0M30.2 216.6c-7.3 1.9-13.1 5.5-18.9 11.7-6 6.3-9.1 12.6-10.6 21.2-1.3 7.8 0 17.1 3.4 24.2 2.8 5.9 10.7 14.4 16.5 17.8 10 5.9-4.1 5.5 238 5.3l221.9-.3 5.8-2.3c7.5-3.1 17.3-12.2 21.1-19.5 5.8-11.6 5.8-25.8 0-37.4-3.8-7.3-13.6-16.4-21.1-19.5l-5.8-2.3-222.5-.2c-190.7-.2-223.3 0-227.8 1.3M29.3 362.4c-19.2 6.1-32 26.7-28.5 45.8 3.2 17 15.4 29.8 31.8 33.3 10.4 2.2 436.4 2.2 446.8 0 12.3-2.6 22.6-10.6 28.1-21.9 9.9-20.3 1.4-44.6-19.2-54.8l-6.8-3.3-224-.2c-183.3-.1-224.8.1-228.2 1.1"/></svg>