<?xml version="1.0" standalone="no"?>
<!DOCTYPE svg PUBLIC "-//W3C//DTD SVG 20010904//EN"
 "http://www.w3.org/TR/2001/REC-SVG-20010904/DTD/svg10.dtd">
<svg version="1.0" xmlns="http://www.w3.org/2000/svg"
 width="512.000000pt" height="512.000000pt" viewBox="0 0 512.000000 512.000000"
 preserveAspectRatio="xMidYMid meet">

<g transform="translate(0.000000,512.000000) scale(0.100000,-0.100000)"
fill="#000000" stroke="none">
<path d="M338 4420 c-229 -39 -384 -281 -323 -505 33 -125 111 -216 232 -273
l58 -27 2255 0 2255 0 65 31 c119 57 193 146 225 269 60 234 -92 466 -332 505
-71 12 -4366 11 -4435 0z"/>
<path d="M302 2954 c-73 -19 -131 -55 -189 -117 -60 -63 -91 -126 -106 -212
-13 -78 0 -171 34 -242 28 -59 107 -144 165 -178 100 -59 -41 -55 2380 -53
l2219 3 58 23 c75 31 173 122 211 195 58 116 58 258 0 374 -38 73 -136 164
-211 195 l-58 23 -2225 2 c-1907 2 -2233 0 -2278 -13z"/>
<path d="M293 1496 c-192 -61 -320 -267 -285 -458 32 -170 154 -298 318 -333
104 -22 4364 -22 4468 0 123 26 226 106 281 219 99 203 14 446 -192 548 l-68
33 -2240 2 c-1833 1 -2248 -1 -2282 -11z"/>
</g>
</svg>
