<svg xmlns="http://www.w3.org/2000/svg" width="682.667" height="682.667" version="1.0" viewBox="0 0 512 512"><path d="M121 .7C90.1 4 61.8 17.8 39.5 40.4 19.6 60.5 8.2 81.8 2.3 110 .6 117.9.5 127.6.5 256s.1 138.1 1.8 146c6 28.3 17.4 49.6 37.2 69.6 20.1 20.3 42 32.1 70.5 38.1 7.9 1.7 17.6 1.8 146 1.8 153.6 0 143.4.4 165.2-7.1 19.7-6.8 34.6-16.2 50.4-31.9 20.2-19.9 32.1-42 38.1-70.5 1.7-7.9 1.8-17.6 1.8-146 0-152.5.4-142.4-6.6-163.6-6.6-20.3-16.6-36.1-32.9-52.4-19.8-19.8-39.6-30.7-67.5-37.3C395.6.6 394.2.6 260 .4c-74.5 0-137.1.1-139 .3m233.5 92.1c32.2 9 56.2 33.2 64.7 65.2l2.3 8.5v179l-2.3 8.5c-8.5 32.3-32.9 56.7-65.2 65.2l-8.5 2.3H256c-82.1 0-90.1-.1-96.3-1.8-33.3-8.5-58.2-33-66.9-65.7l-2.3-8.5v-179l2.3-8.5c9.1-34.4 36.7-60.2 71-66.5 6.3-1.1 23.7-1.3 95.2-1.2 87.4.2 87.5.2 95.5 2.5"/><path d="M165.2 122c-10.9 2.9-18.7 7.4-27.2 16-8.7 8.6-13.1 16.3-16 27.6-1.9 7.4-2 11.3-2 90.4s.1 83 2 90.4c2.9 11.3 7.3 19 16 27.6 8.6 8.7 16.3 13.1 27.6 16 7.4 1.9 11.3 2 90.4 2s83-.1 90.4-2c11.3-2.9 19-7.3 27.6-16 8.7-8.6 13.1-16.3 16-27.6 1.9-7.4 2-11.3 2-90.4s-.1-83-2-90.4c-2.9-11.3-7.3-19-16-27.6-8.6-8.7-16.3-13.1-27.6-16-7.4-1.9-11.2-2-90.8-1.9-78.5 0-83.5.1-90.4 1.9M349 157c4.5 2.3 8 8 8 13s-3.5 10.7-8 13c-2.1 1.1-5.3 2-7 2-5 0-10.7-3.5-13-8-3.8-7.4-1.6-15.3 5.6-19.6 4.8-2.9 9.2-3 14.4-.4m-78.3 25.6c15 3.1 27.5 9.9 38.2 20.7 9.8 10 16.2 20.9 19.8 34.1 2.3 8.4 2.3 28.8 0 37.2-7.7 28-30 49-57.9 54.8-51.9 10.7-98.9-36.2-88.2-88.2 8.3-40.4 48.1-66.9 88.1-58.6"/><path d="M245.5 212.4c-8.3 2-14.6 5.6-21.1 12-17.7 17.8-17.7 45.5 0 63.1 17.9 17.8 45.5 17.8 63.1.1 17.8-17.9 17.8-45.4.1-63.2-11.4-11.4-26.7-15.8-42.1-12"/></svg>