<svg xmlns="http://www.w3.org/2000/svg" width="682.667" height="682.667" version="1.0" viewBox="0 0 512 512"><path d="M36.1 77.1C18.9 80.5 4.3 95.3 1 112.9c-1.4 7.4-1.4 278.8 0 286.2 3.4 18 17.9 32.5 35.9 35.9 7.4 1.4 430.8 1.4 438.2 0 18-3.4 32.5-17.9 35.9-35.9 1.4-7.4 1.4-278.8 0-286.2-3.4-18-17.9-32.5-35.9-35.9-6.7-1.2-432.5-1.2-439 .1m336.4 116.5c-60 59.7-89.7 88.6-93.5 90.9-14 8.5-32 8.5-46 0-3.8-2.3-33.5-31.2-93.5-90.9l-88-87.5h409zm-253 22.3 40 40.1-50 50.1c-27.5 27.5-56.6 56.4-64.7 64.1l-14.8 14V127.8l24.8 24c13.6 13.2 42.7 42.1 64.7 64.1m362.3 104.3-.3 64.3-64.5-64.3-64.5-64.2 64.5-64.2 64.5-64.2.3 64.2c.1 35.3.1 93.1 0 128.4m-290.3-32.1c18.1 18.2 28.6 25.5 43.5 30.1 6.3 1.9 9.7 2.3 21 2.3 15.4 0 23.4-1.9 35-8.2 8.6-4.6 13.1-8.4 27.7-22.6l12.2-12 23.8 23.1c13.1 12.7 42.2 41.5 64.8 64.1l41 41.1H256l-204.5-.1 64.3-63.9c35.4-35.2 64.6-64 65-64s5.2 4.5 10.7 10.1"/></svg>