<svg xmlns="http://www.w3.org/2000/svg" width="682.667" height="682.667" version="1.0" viewBox="0 0 512 512"><path d="M272.5 76.4c-1.3 1.3-2.7 3.9-3 5.7-.4 1.9-5.5 26.3-11.4 54.4l-10.7 51-14 1.1c-23.9 2-47.5 7.8-68.8 16.9-10.5 4.5-25.8 12.5-32.6 17.1-4.2 2.9-5.7 3-8.4.5-2.9-2.7-11.2-6.7-16.9-8.1-2.7-.7-8.5-1.1-13.5-.8-7.2.3-9.9 1-15.5 3.5-18.1 8.5-28.9 28.5-25.8 47.6 1.7 10.2 6.2 18.6 13.4 25.3 3.3 3.1 7.5 6.3 9.4 7.2 3 1.4 3.4 2 3 4.7-.9 5.8 1.3 26.4 3.8 35 11.3 39 47.8 71.5 99.1 88.4 27.9 9.2 53 12.7 84.9 11.8 56.9-1.6 106.2-20.3 138.6-52.6 16-16.1 25.8-32.4 30.3-50.4 1.9-7.6 3.9-28.9 3.1-32.7-.5-2.1 0-2.8 3-4.4 5.1-2.8 11.9-10.4 15.4-17.4 6.3-12.4 6.4-25.6.3-38.7-10.3-22-36.9-31.7-58.9-21.6-4 1.9-8 4.2-8.9 5.2-2.5 2.7-4.1 2.4-11.9-2.7-25.1-16.4-61.8-28.4-96.7-31.7l-13.5-1.2 9.9-47.5c5.5-26.1 10-47.6 10.1-47.6.1-.1 14.9 2.8 33 6.4l32.7 6.7 1.1 4c2.5 9.1 8.3 16.2 16.9 20.6 6.7 3.4 17.6 3.3 25-.2 7.8-3.7 11.4-7.1 14.9-14.1 5.7-11.3 3.8-24.4-4.7-33.9-6.4-7.2-12.5-9.9-22.3-9.9-6.5 0-8.5.4-13.7 3.1-3.5 1.7-7.7 4.9-9.7 7.2l-3.5 4.1-37.3-7.2c-20.4-4-38.7-7.2-40.5-7.2-2.1 0-4.2.9-5.7 2.4m-78.9 185.3c6.7 2.3 15.4 11 17.7 17.7.9 2.7 1.7 8 1.7 11.6 0 11.7-7 22.3-17.9 27.4-6.7 3-19 2.9-25.1-.3-23.1-12-23.8-43.1-1.1-54.8 5.3-2.8 7.4-3.3 13-3.3 3.7 0 9 .8 11.7 1.7m145.9 2.7c6.2 3.1 11.8 8.9 14.8 15.5 3.4 7.2 3.1 18.8-.6 26.3-4.7 9.5-12.6 15.1-24.4 17.2-1.8.3-3.5.1-3.8-.4-.3-.6-2.1-1-3.8-1-4.5 0-12.5-4.1-17.1-8.6-13.4-13.4-11.4-36 4.3-46.9 8.8-6 20.8-6.9 30.6-2.1M193.6 365.1c6.1 4.2 18.5 10.3 26.1 12.8 12.1 4 23.5 5.4 41.3 4.8 23.2-.7 37.2-4.8 54.5-15.7 10.5-6.6 16-6.6 18.3 0 1 2.8-.2 9.9-1.5 8.6-.3-.2-3.6 1.6-7.5 4.1-14.4 9.3-32 16-48.2 18.2-17.7 2.5-42.6.8-59.6-3.9-13.6-3.8-36.7-16.2-38.4-20.5-1.2-3.2-.6-6.9 1.6-9.2 3.1-3.3 7.9-3 13.4.8"/></svg>