<svg xmlns="http://www.w3.org/2000/svg" width="682.667" height="682.667" version="1.0" viewBox="0 0 512 512"><path d="M231.5 1.1c-80 8.3-150.1 51.8-192.7 119.6-60.4 96.1-49 223.7 27.4 306.8 42.5 46.2 95.1 73.7 158.3 82.7 11.9 1.7 51.2 1.6 63.5-.1 62.2-8.6 114.8-36 157.2-82 34.9-37.8 57.2-86.2 65-140.6 1.7-11.8 1.7-51.2 0-63-5.9-41.6-19.1-76.9-41-109.9-9.2-14-18.5-25.4-31.5-38.5-39.9-40.4-89.3-65.3-146.2-73.7-12.3-1.8-47.8-2.6-60-1.3m2.7 159.2c20.7 30.2 37.9 54.9 38.2 55s21.8-24.6 47.9-54.8l47.3-55 12.8-.3c7.5-.1 12.6.1 12.4.7-.1.5-12.3 14.8-26.9 31.7-14.6 17-39 45.4-54.2 63.1L284 232.8l53.1 77.4c29.2 42.5 56 81.5 59.6 86.5l6.4 9.3h-87.8l-39.8-58c-21.9-31.9-40.1-58-40.4-57.9-.3 0-22.9 26-50.1 57.7l-49.6 57.7-13.2.3-13.2.3 57.4-66.8 57.4-66.7-3.2-4.6c-3.6-4.9-107.1-155.7-110.1-160.3l-1.7-2.7 43.8.2 43.9.3z"/><path d="m235.9 256.2 91.8 131.3 19.6.3c10.8.1 19.7-.1 19.7-.5 0-.5-41.1-59.5-91.3-131.3l-91.3-130.5-20.2-.3-20.1-.2z"/></svg>